<svg width="110" height="41" viewBox="0 0 110 41" fill="none" xmlns="http://www.w3.org/2000/svg">
<path d="M99.7591 29.4033C99.1097 31.1902 94.3475 32.2623 94.3475 32.2623C94.3475 32.2623 88.2865 29.4033 85.6889 28.5098C83.0913 27.6163 79.8443 29.4033 79.8443 29.4033C79.8443 29.4033 71.8351 24.2212 71.4022 26.5442C70.9693 28.8672 62.3107 26.5442 62.3107 26.5442C62.3107 26.5442 58.1979 22.0769 55.6003 23.149C53.0027 24.2212 51.0545 20.6474 51.0545 20.6474H45.6429C45.6429 20.6474 47.3746 19.0391 45.6429 16.8948C43.9112 14.7505 40.8807 12.7849 40.8807 12.7849H36.7679L32.4386 14.3931L29.841 11.3554C30.9955 10.9384 32.6117 9.81863 29.841 8.67501L23.78 6.17332C23.5635 6.7094 22.8708 7.4599 21.8318 6.17332C20.7928 4.88674 18.2241 2.18254 17.0696 0.991261C17.0696 0.991261 17.0696 0.991326 15.7708 0.0978027C14.472 -0.79572 3.3611 4.62129 0.5 8.67483V41H109.5V29.4033C109.5 29.4033 100.408 27.6163 99.7591 29.4033Z" fill="url(#paint0_linear_478_1129)"/>
<defs>
<linearGradient id="paint0_linear_478_1129" x1="58.9491" y1="-16.2061" x2="58.8261" y2="41.0001" gradientUnits="userSpaceOnUse">
<stop stop-color="#EF4444" stop-opacity="0.12"/>
<stop offset="1" stop-color="#EF4444" stop-opacity="0"/>
</linearGradient>
</defs>
</svg>
