<svg width="110" height="42" viewBox="0 0 110 42" fill="none" xmlns="http://www.w3.org/2000/svg">
<path d="M109.5 30.4033C109.5 30.4033 100.408 28.6163 99.7591 30.4033C99.1097 32.1902 94.3475 33.2623 94.3475 33.2623C94.3475 33.2623 88.2865 30.4033 85.6889 29.5098C83.0913 28.6163 79.8443 30.4033 79.8443 30.4033C79.8443 30.4033 71.8351 25.2212 71.4022 27.5442C70.9693 29.8672 62.3107 27.5442 62.3107 27.5442C62.3107 27.5442 58.1979 23.0769 55.6003 24.149C53.0027 25.2212 51.0545 21.6474 51.0545 21.6474H45.6429C45.6429 21.6474 47.3746 20.0391 45.6429 17.8948C43.9112 15.7505 40.8807 13.7849 40.8807 13.7849H36.7679L32.4386 15.3931L29.841 12.3554C30.9955 11.9384 32.6117 10.8186 29.841 9.67501C27.0702 8.53138 24.6458 7.53071 23.78 7.17332C23.5635 7.7094 22.8708 8.4599 21.8318 7.17332C20.7928 5.88674 18.224 3.18254 17.0696 1.99126C17.0696 1.99126 17.0696 1.99133 15.7708 1.0978C14.472 0.204279 3.3611 5.62129 0.499999 9.67484" stroke="#DC2626" stroke-width="1.11392"/>
<path d="M99.7591 30.4033C99.1097 32.1902 94.3475 33.2623 94.3475 33.2623C94.3475 33.2623 88.2865 30.4033 85.6889 29.5098C83.0913 28.6163 79.8443 30.4033 79.8443 30.4033C79.8443 30.4033 71.8351 25.2212 71.4022 27.5442C70.9693 29.8672 62.3107 27.5442 62.3107 27.5442C62.3107 27.5442 58.1979 23.0769 55.6003 24.149C53.0027 25.2212 51.0545 21.6474 51.0545 21.6474H45.6429C45.6429 21.6474 47.3746 20.0391 45.6429 17.8948C43.9112 15.7505 40.8807 13.7849 40.8807 13.7849H36.7679L32.4386 15.3931L29.841 12.3554C30.9955 11.9384 32.6117 10.8186 29.841 9.67501L23.78 7.17332C23.5635 7.7094 22.8708 8.4599 21.8318 7.17332C20.7928 5.88674 18.2241 3.18254 17.0696 1.99126C17.0696 1.99126 17.0696 1.99133 15.7708 1.0978C14.472 0.20428 3.3611 5.62129 0.5 9.67483V42H109.5V30.4033C109.5 30.4033 100.408 28.6163 99.7591 30.4033Z" fill="url(#paint0_linear_2011_2652)"/>
<defs>
<linearGradient id="paint0_linear_2011_2652" x1="58.9491" y1="-15.2061" x2="58.8261" y2="42.0001" gradientUnits="userSpaceOnUse">
<stop stop-color="#EF4444" stop-opacity="0.12"/>
<stop offset="1" stop-color="#EF4444" stop-opacity="0"/>
</linearGradient>
</defs>
</svg>

