<svg width="110" height="41" viewBox="0 0 110 41" fill="none" xmlns="http://www.w3.org/2000/svg">
<path d="M10.2409 29.4033C10.8903 31.1902 15.6525 32.2623 15.6525 32.2623C15.6525 32.2623 21.7135 29.4033 24.3111 28.5098C26.9087 27.6163 30.1557 29.4033 30.1557 29.4033C30.1557 29.4033 38.1649 24.2212 38.5978 26.5442C39.0307 28.8672 47.6893 26.5442 47.6893 26.5442C47.6893 26.5442 51.8021 22.0769 54.3997 23.149C56.9973 24.2212 58.9455 20.6474 58.9455 20.6474H64.3571C64.3571 20.6474 62.6254 19.0391 64.3571 16.8948C66.0888 14.7505 69.1193 12.7849 69.1193 12.7849H73.2321L77.5614 14.3931L80.159 11.3554C79.0045 10.9384 77.3883 9.81863 80.159 8.67501L86.22 6.17332C86.4365 6.7094 87.1292 7.4599 88.1682 6.17332C89.2072 4.88674 91.7759 2.18254 92.9304 0.991261C92.9304 0.991261 92.9304 0.991326 94.2292 0.0978027C95.528 -0.79572 106.639 4.62129 109.5 8.67483V41H0.5V29.4033C0.5 29.4033 9.59152 27.6163 10.2409 29.4033Z" fill="url(#paint0_linear_478_1660)"/>
<defs>
<linearGradient id="paint0_linear_478_1660" x1="51.0509" y1="-16.2061" x2="51.1739" y2="41.0001" gradientUnits="userSpaceOnUse">
<stop stop-color="#22C55E" stop-opacity="0.12"/>
<stop offset="1" stop-color="#2FA2B9" stop-opacity="0"/>
</linearGradient>
</defs>
</svg>
