<svg width="110" height="42" viewBox="0 0 110 42" fill="none" xmlns="http://www.w3.org/2000/svg">
<path d="M0.5 30.4033C0.5 30.4033 9.59152 28.6163 10.2409 30.4033C10.8903 32.1902 15.6525 33.2623 15.6525 33.2623C15.6525 33.2623 21.7135 30.4033 24.3111 29.5098C26.9087 28.6163 30.1557 30.4033 30.1557 30.4033C30.1557 30.4033 38.1649 25.2212 38.5978 27.5442C39.0307 29.8672 47.6893 27.5442 47.6893 27.5442C47.6893 27.5442 51.8021 23.0769 54.3997 24.149C56.9973 25.2212 58.9455 21.6474 58.9455 21.6474H64.3571C64.3571 21.6474 62.6254 20.0391 64.3571 17.8948C66.0888 15.7505 69.1193 13.7849 69.1193 13.7849H73.2321L77.5614 15.3931L80.159 12.3554C79.0045 11.9384 77.3883 10.8186 80.159 9.67501C82.9298 8.53138 85.3542 7.53071 86.22 7.17332C86.4365 7.7094 87.1292 8.4599 88.1682 7.17332C89.2072 5.88674 91.776 3.18254 92.9304 1.99126C92.9304 1.99126 92.9304 1.99133 94.2292 1.0978C95.528 0.204279 106.639 5.62129 109.5 9.67484" stroke="#22C55E" stroke-width="1.11392"/>
<path d="M10.2409 30.4033C10.8903 32.1902 15.6525 33.2623 15.6525 33.2623C15.6525 33.2623 21.7135 30.4033 24.3111 29.5098C26.9087 28.6163 30.1557 30.4033 30.1557 30.4033C30.1557 30.4033 38.1649 25.2212 38.5978 27.5442C39.0307 29.8672 47.6893 27.5442 47.6893 27.5442C47.6893 27.5442 51.8021 23.0769 54.3997 24.149C56.9973 25.2212 58.9455 21.6474 58.9455 21.6474H64.3571C64.3571 21.6474 62.6254 20.0391 64.3571 17.8948C66.0888 15.7505 69.1193 13.7849 69.1193 13.7849H73.2321L77.5614 15.3931L80.159 12.3554C79.0045 11.9384 77.3883 10.8186 80.159 9.67501L86.22 7.17332C86.4365 7.7094 87.1292 8.4599 88.1682 7.17332C89.2072 5.88674 91.7759 3.18254 92.9304 1.99126C92.9304 1.99126 92.9304 1.99133 94.2292 1.0978C95.528 0.20428 106.639 5.62129 109.5 9.67483V42H0.5V30.4033C0.5 30.4033 9.59152 28.6163 10.2409 30.4033Z" fill="url(#paint0_linear_2011_2347)"/>
<defs>
<linearGradient id="paint0_linear_2011_2347" x1="51.0509" y1="-15.2061" x2="51.1739" y2="42.0001" gradientUnits="userSpaceOnUse">
<stop stop-color="#2FA2B9" stop-opacity="0.12"/>
<stop offset="1" stop-color="#2FA2B9" stop-opacity="0"/>
</linearGradient>
</defs>
</svg>


