<svg width="31" height="31" viewBox="0 0 31 31" fill="none" xmlns="http://www.w3.org/2000/svg">
<rect x="-2.74219" y="0.5" width="36.4865" height="30" rx="2" fill="white"/>
<mask id="mask0_478_1105" style="mask-type:alpha" maskUnits="userSpaceOnUse" x="-3" y="0" width="37" height="31">
<rect x="-2.74219" y="0.5" width="36.4865" height="30" rx="2" fill="white"/>
</mask>
<g mask="url(#mask0_478_1105)">
<rect x="-2.74219" y="0.5" width="36.4865" height="30" fill="#043CAE"/>
<path fill-rule="evenodd" clip-rule="evenodd" d="M14.2725 6.91424L15.501 6.50003L16.7296 6.91424L16.3698 5.50003L16.7296 4.08582L15.501 4.50003L14.2725 4.08582L14.6323 5.50003L14.2725 6.91424ZM14.2725 26.9142L15.501 26.5L16.7296 26.9142L16.3698 25.5L16.7296 24.0858L15.501 24.5L14.2725 24.0858L14.6323 25.5L14.2725 26.9142ZM24.1883 16.5L22.9597 16.9142L23.3196 15.5L22.9597 14.0858L24.1883 14.5L25.4169 14.0858L25.057 15.5L25.4169 16.9142L24.1883 16.5ZM5.58521 16.9142L6.81377 16.5L8.04233 16.9142L7.68249 15.5L8.04233 14.0858L6.81377 14.5L5.58521 14.0858L5.94504 15.5L5.58521 16.9142ZM23.0244 11.5L21.7959 11.9142L22.1557 10.5L21.7959 9.08581L23.0244 9.50003L24.253 9.08581L23.8931 10.5L24.253 11.9142L23.0244 11.5ZM6.74908 21.9142L7.97764 21.5L9.2062 21.9142L8.84637 20.5L9.2062 19.0858L7.97764 19.5L6.74908 19.0858L7.10892 20.5L6.74908 21.9142ZM19.8447 7.83978L18.6161 8.25399L18.9759 6.83978L18.6161 5.42556L19.8447 5.83978L21.0732 5.42556L20.7134 6.83978L21.0732 8.25399L19.8447 7.83978ZM9.92883 25.5745L11.1574 25.1603L12.386 25.5745L12.0261 24.1603L12.386 22.7461L11.1574 23.1603L9.92883 22.7461L10.2887 24.1603L9.92883 25.5745ZM23.0244 21.5L21.7959 21.9142L22.1557 20.5L21.7959 19.0858L23.0244 19.5L24.253 19.0858L23.8931 20.5L24.253 21.9142L23.0244 21.5ZM6.74908 11.9142L7.97764 11.5L9.2062 11.9142L8.84637 10.5L9.2062 9.08581L7.97764 9.50003L6.74908 9.08581L7.10892 10.5L6.74908 11.9142ZM19.8447 25.1603L18.6161 25.5745L18.9759 24.1603L18.6161 22.7461L19.8447 23.1603L21.0732 22.7461L20.7134 24.1603L21.0732 25.5745L19.8447 25.1603ZM9.92883 8.25399L11.1574 7.83978L12.386 8.25399L12.0261 6.83978L12.386 5.42556L11.1574 5.83978L9.92883 5.42556L10.2887 6.83978L9.92883 8.25399Z" fill="#FFD429"/>
</g>
</svg>
