<svg width="31" height="31" viewBox="0 0 31 31" fill="none" xmlns="http://www.w3.org/2000/svg">
<rect x="-2.74219" y="0.5" width="36.4865" height="30" rx="2" fill="white"/>
<mask id="mask0_478_791" style="mask-type:alpha" maskUnits="userSpaceOnUse" x="-3" y="0" width="37" height="31">
<rect x="-2.74219" y="0.5" width="36.4865" height="30" rx="2" fill="white"/>
</mask>
<g mask="url(#mask0_478_791)">
<rect x="-2.74219" y="0.5" width="36.4865" height="30" fill="#0A17A7"/>
<mask id="path-4-outside-1_478_791" maskUnits="userSpaceOnUse" x="-4.74219" y="-1.5" width="19" height="18" fill="black">
<rect fill="white" x="-4.74219" y="-1.5" width="19" height="18"/>
<path fill-rule="evenodd" clip-rule="evenodd" d="M3.33889 6.5L-2.74219 0.5H-1.87346L4.20762 5.5H5.94507L12.8949 0.5V1.34253C12.8949 1.44223 12.8503 1.53669 12.7732 1.60001L6.8138 6.5V8.5L12.3557 13.9681C12.5535 14.1632 12.4153 14.5 12.1375 14.5C12.0655 14.5 11.9958 14.475 11.9401 14.4293L5.94507 9.5H4.20762L-2.74219 14.5V13.5L3.33889 8.5V6.5Z"/>
</mask>
<path fill-rule="evenodd" clip-rule="evenodd" d="M3.33889 6.5L-2.74219 0.5H-1.87346L4.20762 5.5H5.94507L12.8949 0.5V1.34253C12.8949 1.44223 12.8503 1.53669 12.7732 1.60001L6.8138 6.5V8.5L12.3557 13.9681C12.5535 14.1632 12.4153 14.5 12.1375 14.5C12.0655 14.5 11.9958 14.475 11.9401 14.4293L5.94507 9.5H4.20762L-2.74219 14.5V13.5L3.33889 8.5V6.5Z" fill="#FF2E3B"/>
<path d="M3.33889 6.5H4.00556V6.22123L3.80712 6.02544L3.33889 6.5ZM-2.74219 0.5V-0.166667H-4.36706L-3.21042 0.974558L-2.74219 0.5ZM-1.87346 0.5L-1.45006 -0.0149504L-1.63458 -0.166667H-1.87346V0.5ZM4.20762 5.5L3.78422 6.01495L3.96874 6.16667H4.20762V5.5ZM5.94507 5.5V6.16667H6.15997L6.33441 6.04117L5.94507 5.5ZM12.8949 0.5H13.5615V-0.800902L12.5055 -0.0411655L12.8949 0.5ZM6.8138 6.5L6.39039 5.98505L6.14713 6.18507V6.5H6.8138ZM6.8138 8.5H6.14713V8.77877L6.34557 8.97456L6.8138 8.5ZM5.94507 9.5L6.36847 8.98505L6.18396 8.83333H5.94507V9.5ZM4.20762 9.5V8.83333H3.99272L3.81828 8.95883L4.20762 9.5ZM-2.74219 14.5H-3.40885V15.8009L-2.35285 15.0412L-2.74219 14.5ZM-2.74219 13.5L-3.16559 12.9851L-3.40885 13.1851V13.5H-2.74219ZM3.33889 8.5L3.7623 9.01495L4.00556 8.81493V8.5H3.33889ZM11.9401 14.4293L11.5167 14.9442L11.9401 14.4293ZM12.3557 13.9681L11.8875 14.4426L12.3557 13.9681ZM12.7732 1.60001L12.3498 1.08506L12.7732 1.60001ZM3.80712 6.02544L-2.27396 0.0254424L-3.21042 0.974558L2.87066 6.97456L3.80712 6.02544ZM-2.74219 1.16667H-1.87346V-0.166667H-2.74219V1.16667ZM-2.29687 1.01495L3.78422 6.01495L4.63102 4.98505L-1.45006 -0.0149504L-2.29687 1.01495ZM4.20762 6.16667H5.94507V4.83333H4.20762V6.16667ZM6.33441 6.04117L13.2842 1.04117L12.5055 -0.0411655L5.55573 4.95883L6.33441 6.04117ZM12.2282 0.5V1.34253H13.5615V0.5H12.2282ZM12.3498 1.08506L6.39039 5.98505L7.2372 7.01495L13.1967 2.11496L12.3498 1.08506ZM6.14713 6.5V8.5H7.48046V6.5H6.14713ZM6.34557 8.97456L11.8875 14.4426L12.824 13.4935L7.28203 8.02544L6.34557 8.97456ZM12.3635 13.9143L6.36847 8.98505L5.52167 10.015L11.5167 14.9442L12.3635 13.9143ZM5.94507 8.83333H4.20762V10.1667H5.94507V8.83333ZM3.81828 8.95883L-3.13153 13.9588L-2.35285 15.0412L4.59696 10.0412L3.81828 8.95883ZM-2.07552 14.5V13.5H-3.40885V14.5H-2.07552ZM-2.31878 14.015L3.7623 9.01495L2.91549 7.98505L-3.16559 12.9851L-2.31878 14.015ZM4.00556 8.5V6.5H2.67223V8.5H4.00556ZM12.1375 13.8333C12.22 13.8333 12.2999 13.862 12.3635 13.9143L11.5167 14.9442C11.6916 15.088 11.9111 15.1667 12.1375 15.1667V13.8333ZM11.8875 14.4426C11.661 14.2191 11.8193 13.8333 12.1375 13.8333V15.1667C13.0114 15.1667 13.4461 14.1073 12.824 13.4935L11.8875 14.4426ZM12.2282 1.34253C12.2282 1.24284 12.2728 1.14838 12.3498 1.08506L13.1967 2.11496C13.4277 1.92501 13.5615 1.64162 13.5615 1.34253H12.2282Z" fill="white" mask="url(#path-4-outside-1_478_791)"/>
<path fill-rule="evenodd" clip-rule="evenodd" d="M-2.74219 5.5V9.5H3.33889V14.8333C3.33889 15.2015 3.63737 15.5 4.00556 15.5H6.14713C6.51532 15.5 6.8138 15.2015 6.8138 14.8333V9.5H13.0969C13.4651 9.5 13.7636 9.20152 13.7636 8.83333V6.16667C13.7636 5.79848 13.4651 5.5 13.0969 5.5H6.8138V0.5H3.33889V5.5H-2.74219Z" fill="url(#paint0_linear_478_791)"/>
<path fill-rule="evenodd" clip-rule="evenodd" d="M-2.74219 6.5H4.20762V5.5V0.5H5.94507V5.5V6.5H12.8949V8.5H5.94507V9.5V14.5H4.20762V9.5V8.5H-2.74219V6.5Z" fill="url(#paint1_linear_478_791)"/>
<path fill-rule="evenodd" clip-rule="evenodd" d="M5.07639 25L3.54452 25.927L3.83708 23.9635L2.59777 22.5729L4.31046 22.2865L5.07639 20.5L5.84233 22.2865L7.55502 22.5729L6.3157 23.9635L6.60827 25.927L5.07639 25Z" fill="white"/>
<path fill-rule="evenodd" clip-rule="evenodd" d="M23.3196 26.5L22.091 26.9142L22.4509 25.5L22.091 24.0858L23.3196 24.5L24.5482 24.0858L24.1883 25.5L24.5482 26.9142L23.3196 26.5Z" fill="white"/>
<path fill-rule="evenodd" clip-rule="evenodd" d="M23.3196 7.5L22.091 7.91421L22.4509 6.5L22.091 5.08579L23.3196 5.5L24.5482 5.08579L24.1883 6.5L24.5482 7.91421L23.3196 7.5Z" fill="white"/>
<path fill-rule="evenodd" clip-rule="evenodd" d="M28.5319 13.5L27.3033 13.9142L27.6632 12.5L27.3033 11.0858L28.5319 11.5L29.7604 11.0858L29.4006 12.5L29.7604 13.9142L28.5319 13.5Z" fill="white"/>
<path fill-rule="evenodd" clip-rule="evenodd" d="M18.1072 15.5L16.8786 15.9142L17.2385 14.5L16.8786 13.0858L18.1072 13.5L19.3358 13.0858L18.9759 14.5L19.3358 15.9142L18.1072 15.5Z" fill="white"/>
<path fill-rule="evenodd" clip-rule="evenodd" d="M25.9257 18L25.3115 18.2071L25.4914 17.5L25.3115 16.7929L25.9257 17L26.54 16.7929L26.3601 17.5L26.54 18.2071L25.9257 18Z" fill="white"/>
</g>
<defs>
<linearGradient id="paint0_linear_478_791" x1="-2.74219" y1="0.5" x2="-2.74219" y2="15.5" gradientUnits="userSpaceOnUse">
<stop stop-color="white"/>
<stop offset="1" stop-color="#F0F0F0"/>
</linearGradient>
<linearGradient id="paint1_linear_478_791" x1="-2.74219" y1="0.5" x2="-2.74219" y2="14.5" gradientUnits="userSpaceOnUse">
<stop stop-color="#FF2E3B"/>
<stop offset="1" stop-color="#FC0D1B"/>
</linearGradient>
</defs>
</svg>
