<svg width="34" height="36" viewBox="0 0 34 36" fill="none" xmlns="http://www.w3.org/2000/svg">
<rect width="34" height="36" rx="17" fill="#CBD5E1"/>
<path d="M18.6303 23.16C17.5316 23.16 16.5929 22.8293 15.8143 22.168C15.0463 21.5067 14.5289 20.552 14.2623 19.304H12.7103V17.896H14.0863C14.0649 17.512 14.0649 17.1493 14.0863 16.808H12.7103V15.4H14.2623C14.5396 14.1627 15.0623 13.2133 15.8303 12.552C16.5983 11.8907 17.5316 11.56 18.6303 11.56C19.2489 11.56 19.8356 11.672 20.3903 11.896C20.9449 12.12 21.4036 12.4507 21.7663 12.888L21.0943 14.312C20.7529 13.9387 20.3903 13.6773 20.0063 13.528C19.6223 13.3787 19.2116 13.304 18.7743 13.304C18.1983 13.304 17.6969 13.4747 17.2703 13.816C16.8543 14.1467 16.5503 14.6747 16.3583 15.4H18.7583V16.808H16.1183C16.1076 17.1707 16.1129 17.5333 16.1343 17.896H18.7583V19.304H16.3583C16.5503 20.04 16.8543 20.5787 17.2703 20.92C17.6969 21.2507 18.1983 21.416 18.7743 21.416C19.2116 21.416 19.6223 21.3413 20.0063 21.192C20.3903 21.032 20.7529 20.7707 21.0943 20.408L21.7663 21.816C21.4036 22.264 20.9449 22.6 20.3903 22.824C19.8356 23.048 19.2489 23.16 18.6303 23.16Z" fill="#001B21"/>
</svg>
