<svg width="24" height="19" viewBox="0 0 24 19" fill="none" xmlns="http://www.w3.org/2000/svg">
<rect y="0.928574" width="24" height="17.1429" rx="2" fill="white"/>
<mask id="mask0_478_1066" style="mask-type:alpha" maskUnits="userSpaceOnUse" x="0" y="0" width="24" height="19">
<rect y="0.928574" width="24" height="17.1429" rx="2" fill="white"/>
</mask>
<g mask="url(#mask0_478_1066)">
<rect y="0.928574" width="24" height="17.1429" fill="#043CAE"/>
<path fill-rule="evenodd" clip-rule="evenodd" d="M11.1918 4.59384L11.9999 4.35714L12.8081 4.59384L12.5714 3.78571L12.8081 2.97759L11.9999 3.21429L11.1918 2.97759L11.4285 3.78571L11.1918 4.59384ZM11.1918 16.0224L11.9999 15.7857L12.8081 16.0224L12.5714 15.2143L12.8081 14.4062L11.9999 14.6429L11.1918 14.4062L11.4285 15.2143L11.1918 16.0224ZM17.7142 10.0714L16.9061 10.3081L17.1428 9.5L16.9061 8.69188L17.7142 8.92857L18.5224 8.69188L18.2857 9.5L18.5224 10.3081L17.7142 10.0714ZM5.47754 10.3081L6.28566 10.0714L7.09378 10.3081L6.85709 9.5L7.09378 8.69188L6.28566 8.92857L5.47754 8.69188L5.71423 9.5L5.47754 10.3081ZM16.9487 7.21429L16.1405 7.45098L16.3772 6.64286L16.1405 5.83474L16.9487 6.07143L17.7568 5.83474L17.5201 6.64286L17.7568 7.45098L16.9487 7.21429ZM6.24311 13.1653L7.05123 12.9286L7.85935 13.1653L7.62266 12.3571L7.85935 11.549L7.05123 11.7857L6.24311 11.549L6.4798 12.3571L6.24311 13.1653ZM14.8571 5.12271L14.049 5.35941L14.2857 4.55128L14.049 3.74316L14.8571 3.97985L15.6652 3.74316L15.4285 4.55128L15.6652 5.35941L14.8571 5.12271ZM8.33468 15.2568L9.1428 15.0201L9.95093 15.2568L9.71423 14.4487L9.95093 13.6406L9.1428 13.8773L8.33468 13.6406L8.57137 14.4487L8.33468 15.2568ZM16.9487 12.9286L16.1405 13.1653L16.3772 12.3571L16.1405 11.549L16.9487 11.7857L17.7568 11.549L17.5201 12.3571L17.7568 13.1653L16.9487 12.9286ZM6.24311 7.45098L7.05123 7.21429L7.85935 7.45098L7.62266 6.64286L7.85935 5.83474L7.05123 6.07143L6.24311 5.83474L6.4798 6.64286L6.24311 7.45098ZM14.8571 15.0201L14.049 15.2568L14.2857 14.4487L14.049 13.6406L14.8571 13.8773L15.6652 13.6406L15.4285 14.4487L15.6652 15.2568L14.8571 15.0201ZM8.33468 5.35941L9.1428 5.12271L9.95093 5.35941L9.71423 4.55128L9.95093 3.74316L9.1428 3.97985L8.33468 3.74316L8.57137 4.55128L8.33468 5.35941Z" fill="#FFD429"/>
</g>
<rect x="0.5" y="1.42857" width="23" height="16.1429" stroke="#F3F4F6"/>
</svg>
