<svg width="14" height="13" viewBox="0 0 14 13" fill="none" xmlns="http://www.w3.org/2000/svg">
<path d="M13.1667 4.64095C11.6267 2.22095 9.37334 0.827614 7 0.827614C5.81334 0.827614 4.66 1.17428 3.60667 1.82095C2.55334 2.47428 1.60667 3.42761 0.833336 4.64095C0.166669 5.68761 0.166669 7.38761 0.833336 8.43428C2.37334 10.8609 4.62667 12.2476 7 12.2476C8.18667 12.2476 9.34 11.9009 10.3933 11.2543C11.4467 10.6009 12.3933 9.64761 13.1667 8.43428C13.8333 7.39428 13.8333 5.68761 13.1667 4.64095ZM7 9.23428C5.50667 9.23428 4.30667 8.02761 4.30667 6.54095C4.30667 5.05428 5.50667 3.84761 7 3.84761C8.49334 3.84761 9.69334 5.05428 9.69334 6.54095C9.69334 8.02761 8.49334 9.23428 7 9.23428Z" fill="white"/>
</svg>
