<svg width="203" height="46" viewBox="0 0 203 46" fill="none" xmlns="http://www.w3.org/2000/svg">
<rect y="6.54095" width="32" height="32" rx="8" fill="white"/>
<path d="M11.8267 25.2076C11.9 24.8809 11.7667 24.4143 11.5333 24.1809L9.91333 22.5609C9.40667 22.0543 9.20667 21.5143 9.35333 21.0476C9.50667 20.5809 9.98 20.2609 10.6867 20.1409L12.7667 19.7943C13.0667 19.7409 13.4333 19.4743 13.5733 19.2009L14.72 16.9009C15.0533 16.2409 15.5067 15.8743 16 15.8743C16.4933 15.8743 16.9467 16.2409 17.28 16.9009L18.4267 19.2009C18.5133 19.3743 18.6933 19.5409 18.8867 19.6543L11.7067 26.8343C11.6133 26.9276 11.4533 26.8409 11.48 26.7076L11.8267 25.2076Z" fill="#F59E0B"/>
<path d="M20.4667 24.1809C20.2267 24.4209 20.0933 24.8809 20.1733 25.2076L20.6333 27.2143C20.8267 28.0476 20.7067 28.6743 20.2933 28.9743C20.1267 29.0943 19.9267 29.1543 19.6933 29.1543C19.3533 29.1543 18.9533 29.0276 18.5133 28.7676L16.56 27.6076C16.2533 27.4276 15.7467 27.4276 15.44 27.6076L13.4867 28.7676C12.7467 29.2009 12.1133 29.2743 11.7067 28.9743C11.5533 28.8609 11.44 28.7076 11.3667 28.5076L19.4733 20.4009C19.78 20.0943 20.2133 19.9543 20.6333 20.0276L21.3067 20.1409C22.0133 20.2609 22.4867 20.5809 22.64 21.0476C22.7867 21.5143 22.5867 22.0543 22.08 22.5609L20.4667 24.1809Z" fill="#F59E0B"/>
<path d="M40.266 15.0409L44.62 5.17095H45.6L49.954 15.0409H48.764L47.672 12.5209H42.534L41.456 15.0409H40.266ZM45.096 6.51495L42.954 11.5549H47.266L45.124 6.51495H45.096ZM52.7001 15.0409L50.1661 8.23695H51.3561L53.2741 13.7109L55.2621 8.23695H56.2281L58.1881 13.7249L60.1341 8.23695H61.2681L58.7201 15.0409H57.6421L55.7241 9.76295L53.7921 15.0409H52.7001ZM64.6708 15.1669C64.2042 15.1669 63.7842 15.0783 63.4108 14.9009C63.0468 14.7143 62.7575 14.4623 62.5428 14.1449C62.3282 13.8276 62.2208 13.4729 62.2208 13.0809C62.2208 12.5863 62.3468 12.1943 62.5988 11.9049C62.8602 11.6156 63.2848 11.4103 63.8728 11.2889C64.4702 11.1583 65.2822 11.0929 66.3088 11.0929H66.7568V10.6589C66.7568 10.0803 66.6355 9.66495 66.3928 9.41295C66.1595 9.15161 65.7815 9.02095 65.2588 9.02095C64.8482 9.02095 64.4515 9.08161 64.0688 9.20295C63.6862 9.31495 63.2942 9.50161 62.8928 9.76295L62.5008 8.93695C62.8555 8.68495 63.2848 8.48428 63.7888 8.33495C64.3022 8.18561 64.7922 8.11095 65.2588 8.11095C66.1362 8.11095 66.7848 8.32561 67.2048 8.75495C67.6342 9.18428 67.8488 9.85161 67.8488 10.7569V15.0409H66.7848V13.8649C66.6075 14.2663 66.3322 14.5836 65.9588 14.8169C65.5948 15.0503 65.1655 15.1669 64.6708 15.1669ZM64.8528 14.3129C65.4128 14.3129 65.8702 14.1216 66.2248 13.7389C66.5795 13.3469 66.7568 12.8523 66.7568 12.2549V11.8349H66.3228C65.5668 11.8349 64.9695 11.8723 64.5308 11.9469C64.1015 12.0123 63.7982 12.1336 63.6208 12.3109C63.4528 12.4789 63.3688 12.7123 63.3688 13.0109C63.3688 13.3936 63.4995 13.7063 63.7608 13.9489C64.0315 14.1916 64.3955 14.3129 64.8528 14.3129ZM69.9527 15.0409V8.23695H71.0587V9.45495C71.4227 8.63361 72.1693 8.18095 73.2987 8.09695L73.7047 8.05495L73.7887 9.03495L73.0747 9.11895C72.4307 9.17495 71.9407 9.38028 71.6047 9.73495C71.2687 10.0803 71.1007 10.5563 71.1007 11.1629V15.0409H69.9527ZM77.4782 15.1669C76.8716 15.1669 76.3396 15.0223 75.8822 14.7329C75.4342 14.4436 75.0842 14.0376 74.8322 13.5149C74.5896 12.9829 74.4682 12.3576 74.4682 11.6389C74.4682 10.9109 74.5896 10.2856 74.8322 9.76295C75.0842 9.23095 75.4342 8.82495 75.8822 8.54495C76.3396 8.25561 76.8716 8.11095 77.4782 8.11095C78.0102 8.11095 78.4769 8.22761 78.8782 8.46095C79.2889 8.69428 79.5922 9.01628 79.7882 9.42695V5.17095H80.9222V15.0409H79.8162V13.7949C79.6202 14.2243 79.3169 14.5603 78.9062 14.8029C78.4956 15.0456 78.0196 15.1669 77.4782 15.1669ZM77.7162 14.2569C78.3509 14.2569 78.8596 14.0329 79.2422 13.5849C79.6249 13.1276 79.8162 12.4789 79.8162 11.6389C79.8162 10.7896 79.6249 10.1409 79.2422 9.69295C78.8596 9.24495 78.3509 9.02095 77.7162 9.02095C77.0722 9.02095 76.5589 9.24495 76.1762 9.69295C75.8029 10.1409 75.6162 10.7896 75.6162 11.6389C75.6162 12.4789 75.8029 13.1276 76.1762 13.5849C76.5589 14.0329 77.0722 14.2569 77.7162 14.2569ZM86.1163 15.1669C85.043 15.1669 84.1937 14.8543 83.5683 14.2289C82.943 13.5943 82.6303 12.7356 82.6303 11.6529C82.6303 10.9529 82.7703 10.3369 83.0503 9.80495C83.3303 9.26361 83.713 8.84828 84.1983 8.55895C84.693 8.26028 85.2623 8.11095 85.9063 8.11095C86.8303 8.11095 87.5537 8.40961 88.0763 9.00695C88.599 9.59495 88.8603 10.4069 88.8603 11.4429V11.8769H83.7363C83.7737 12.6516 83.9977 13.2443 84.4083 13.6549C84.819 14.0563 85.3883 14.2569 86.1163 14.2569C86.527 14.2569 86.919 14.1963 87.2923 14.0749C87.6657 13.9443 88.0203 13.7343 88.3563 13.4449L88.7483 14.2429C88.4403 14.5323 88.0483 14.7609 87.5723 14.9289C87.0963 15.0876 86.611 15.1669 86.1163 15.1669ZM85.9343 8.95095C85.2903 8.95095 84.7817 9.15161 84.4083 9.55295C84.035 9.95428 83.8157 10.4816 83.7503 11.1349H87.8803C87.8523 10.4443 87.6703 9.90761 87.3343 9.52495C87.0077 9.14228 86.541 8.95095 85.9343 8.95095ZM93.0915 15.1669C92.4848 15.1669 91.9528 15.0223 91.4955 14.7329C91.0475 14.4436 90.6975 14.0376 90.4455 13.5149C90.2028 12.9829 90.0815 12.3576 90.0815 11.6389C90.0815 10.9109 90.2028 10.2856 90.4455 9.76295C90.6975 9.23095 91.0475 8.82495 91.4955 8.54495C91.9528 8.25561 92.4848 8.11095 93.0915 8.11095C93.6235 8.11095 94.0902 8.22761 94.4915 8.46095C94.9022 8.69428 95.2055 9.01628 95.4015 9.42695V5.17095H96.5355V15.0409H95.4295V13.7949C95.2335 14.2243 94.9302 14.5603 94.5195 14.8029C94.1088 15.0456 93.6328 15.1669 93.0915 15.1669ZM93.3295 14.2569C93.9642 14.2569 94.4728 14.0329 94.8555 13.5849C95.2382 13.1276 95.4295 12.4789 95.4295 11.6389C95.4295 10.7896 95.2382 10.1409 94.8555 9.69295C94.4728 9.24495 93.9642 9.02095 93.3295 9.02095C92.6855 9.02095 92.1722 9.24495 91.7895 9.69295C91.4162 10.1409 91.2295 10.7896 91.2295 11.6389C91.2295 12.4789 91.4162 13.1276 91.7895 13.5849C92.1722 14.0329 92.6855 14.2569 93.3295 14.2569ZM102.413 15.0409V5.17095H106.319C107.383 5.17095 108.195 5.42761 108.755 5.94095C109.325 6.45428 109.609 7.18695 109.609 8.13895C109.609 9.08161 109.325 9.81428 108.755 10.3369C108.195 10.8503 107.383 11.1069 106.319 11.1069H103.561V15.0409H102.413ZM103.561 10.1409H106.179C107.71 10.1409 108.475 9.47361 108.475 8.13895C108.475 6.79495 107.71 6.12295 106.179 6.12295H103.561V10.1409ZM113.632 15.1669C112.97 15.1669 112.396 15.0223 111.91 14.7329C111.425 14.4436 111.047 14.0376 110.776 13.5149C110.515 12.9829 110.384 12.3576 110.384 11.6389C110.384 10.9203 110.515 10.2996 110.776 9.77695C111.047 9.24495 111.425 8.83428 111.91 8.54495C112.396 8.25561 112.97 8.11095 113.632 8.11095C114.286 8.11095 114.855 8.25561 115.34 8.54495C115.835 8.83428 116.213 9.24495 116.474 9.77695C116.745 10.2996 116.88 10.9203 116.88 11.6389C116.88 12.3576 116.745 12.9829 116.474 13.5149C116.213 14.0376 115.835 14.4436 115.34 14.7329C114.855 15.0223 114.286 15.1669 113.632 15.1669ZM113.632 14.2569C114.267 14.2569 114.776 14.0329 115.158 13.5849C115.541 13.1276 115.732 12.4789 115.732 11.6389C115.732 10.7896 115.541 10.1409 115.158 9.69295C114.776 9.24495 114.267 9.02095 113.632 9.02095C112.988 9.02095 112.475 9.24495 112.092 9.69295C111.719 10.1409 111.532 10.7896 111.532 11.6389C111.532 12.4789 111.719 13.1276 112.092 13.5849C112.475 14.0329 112.988 14.2569 113.632 14.2569ZM118.444 6.54295V5.26895H119.844V6.54295H118.444ZM118.584 15.0409V8.23695H119.718V15.0409H118.584ZM121.837 15.0409V8.23695H122.943V9.39895C123.167 8.96961 123.485 8.64761 123.895 8.43295C124.306 8.21828 124.768 8.11095 125.281 8.11095C126.896 8.11095 127.703 9.00695 127.703 10.7989V15.0409H126.569V10.8689C126.569 10.2343 126.443 9.77228 126.191 9.48295C125.949 9.18428 125.557 9.03495 125.015 9.03495C124.39 9.03495 123.891 9.23095 123.517 9.62295C123.153 10.0056 122.971 10.5189 122.971 11.1629V15.0409H121.837ZM132.524 15.1669C131.722 15.1669 131.12 14.9569 130.718 14.5369C130.317 14.1076 130.116 13.4916 130.116 12.6889V9.11895H128.786V8.23695H130.116V6.15095H131.25V8.23695H133.406V9.11895H131.25V12.5769C131.25 13.1089 131.362 13.5149 131.586 13.7949C131.81 14.0656 132.174 14.2009 132.678 14.2009C132.828 14.2009 132.977 14.1823 133.126 14.1449C133.276 14.1076 133.411 14.0703 133.532 14.0329L133.728 14.9009C133.607 14.9663 133.43 15.0269 133.196 15.0829C132.963 15.1389 132.739 15.1669 132.524 15.1669ZM136.985 15.1669C136.453 15.1669 135.949 15.0923 135.473 14.9429C134.997 14.7936 134.605 14.5836 134.297 14.3129L134.661 13.5149C134.997 13.7856 135.366 13.9863 135.767 14.1169C136.178 14.2383 136.593 14.2989 137.013 14.2989C137.545 14.2989 137.946 14.2009 138.217 14.0049C138.488 13.8089 138.623 13.5429 138.623 13.2069C138.623 12.9456 138.534 12.7403 138.357 12.5909C138.18 12.4323 137.9 12.3109 137.517 12.2269L136.243 11.9469C135.086 11.6949 134.507 11.0976 134.507 10.1549C134.507 9.53895 134.75 9.04428 135.235 8.67095C135.73 8.29761 136.374 8.11095 137.167 8.11095C137.634 8.11095 138.077 8.18561 138.497 8.33495C138.926 8.47495 139.281 8.68495 139.561 8.96495L139.183 9.76295C138.912 9.51095 138.595 9.31961 138.231 9.18895C137.876 9.04895 137.522 8.97895 137.167 8.97895C136.644 8.97895 136.248 9.08161 135.977 9.28695C135.706 9.49228 135.571 9.76295 135.571 10.0989C135.571 10.6216 135.916 10.9576 136.607 11.1069L137.881 11.3729C138.478 11.5036 138.931 11.7136 139.239 12.0029C139.547 12.2829 139.701 12.6656 139.701 13.1509C139.701 13.7763 139.454 14.2709 138.959 14.6349C138.464 14.9896 137.806 15.1669 136.985 15.1669Z" fill="white"/>
<path d="M44.576 38.2009C43.808 38.2009 43.072 38.0889 42.368 37.8649C41.6747 37.6303 41.0987 37.3156 40.64 36.9209L41.312 35.3529C42.272 36.0996 43.3387 36.4729 44.512 36.4729C45.952 36.4729 46.672 35.9076 46.672 34.7769C46.672 34.2436 46.4907 33.8489 46.128 33.5929C45.776 33.3263 45.2587 33.1929 44.576 33.1929H42.768V31.4969H44.384C44.9813 31.4969 45.456 31.3529 45.808 31.0649C46.16 30.7663 46.336 30.3556 46.336 29.8329C46.336 29.3423 46.1707 28.9689 45.84 28.7129C45.52 28.4569 45.0507 28.3289 44.432 28.3289C43.3227 28.3289 42.3467 28.7129 41.504 29.4809L40.832 27.9449C41.28 27.5183 41.84 27.1876 42.512 26.9529C43.184 26.7183 43.8827 26.6009 44.608 26.6009C45.7813 26.6009 46.6933 26.8676 47.344 27.4009C47.9947 27.9236 48.32 28.6543 48.32 29.5929C48.32 30.2009 48.1653 30.7343 47.856 31.1929C47.5467 31.6516 47.1253 31.9823 46.592 32.1849C47.2427 32.3663 47.7493 32.7023 48.112 33.1929C48.4747 33.6729 48.656 34.2596 48.656 34.9529C48.656 35.9556 48.2933 36.7503 47.568 37.3369C46.8427 37.9129 45.8453 38.2009 44.576 38.2009ZM54.4898 38.2009C53.7538 38.2009 53.0391 38.0889 52.3458 37.8649C51.6524 37.6303 51.0871 37.3156 50.6497 36.9209L51.3218 35.3529C52.2924 36.0996 53.3378 36.4729 54.4578 36.4729C55.1298 36.4729 55.6524 36.3023 56.0258 35.9609C56.4098 35.6089 56.6018 35.1396 56.6018 34.5529C56.6018 33.9556 56.4204 33.4756 56.0578 33.1129C55.6951 32.7396 55.1991 32.5529 54.5698 32.5529C53.6738 32.5529 52.9324 32.9103 52.3458 33.6249H50.9698V26.7609H57.8978V28.4569H52.9698V31.5129C53.5351 31.0863 54.2284 30.8729 55.0498 30.8729C55.7644 30.8729 56.3831 31.0276 56.9058 31.3369C57.4391 31.6356 57.8498 32.0569 58.1378 32.6009C58.4364 33.1343 58.5858 33.7583 58.5858 34.4729C58.5858 35.2089 58.4204 35.8596 58.0898 36.4249C57.7591 36.9796 57.2844 37.4169 56.6658 37.7369C56.0578 38.0463 55.3324 38.2009 54.4898 38.2009Z" fill="white"/>
</svg>
