<svg width="24" height="20" viewBox="0 0 24 20" fill="none" xmlns="http://www.w3.org/2000/svg">
<path d="M23.3885 9.87604C23.3885 7.06877 21.2109 4.76065 18.4562 4.55232C17.4948 1.84323 14.9224 0 12 0C9.07767 0 6.50523 1.84323 5.54386 4.5524C2.78911 4.76073 0.611572 7.06885 0.611572 9.87612C0.611572 11.3084 1.17933 12.6621 2.18483 13.661C2.14434 13.9097 2.12398 14.1613 2.12398 14.4131C2.12398 16.9997 4.2283 19.104 6.81481 19.104H9.60196V16.908L8.022 15.3281C7.85763 15.1638 7.76697 14.9451 7.76697 14.7125C7.76697 14.4798 7.85755 14.2612 8.02216 14.0968L8.97287 13.146C9.31234 12.8067 9.86458 12.8067 10.2041 13.146L10.5835 13.5255V12.8903C10.5835 12.4103 10.974 12.0197 11.454 12.0197H12.7987C13.2787 12.0197 13.6693 12.4102 13.6693 12.8903V14.4925L13.7961 14.3657C13.9604 14.2013 14.1791 14.1107 14.4116 14.1107C14.6441 14.1106 14.8628 14.2012 15.0273 14.3657L15.978 15.3164C15.978 15.3164 15.978 15.3164 15.9781 15.3164C16.3175 15.6559 16.3175 16.2082 15.9781 16.5476L14.6508 17.875V19.104H17.1853C19.7718 19.104 21.8761 16.9997 21.8761 14.4131C21.8761 14.1613 21.8558 13.9097 21.8153 13.661C22.8207 12.662 23.3885 11.3084 23.3885 9.87604Z" fill="#15803D"/>
</svg>
