<svg width="24" height="19" viewBox="0 0 24 19" fill="none" xmlns="http://www.w3.org/2000/svg">
<rect y="0.928574" width="24" height="17.1429" rx="2" fill="white"/>
<mask id="mask0_478_1564" style="mask-type:alpha" maskUnits="userSpaceOnUse" x="0" y="0" width="24" height="19">
<rect y="0.928574" width="24" height="17.1429" rx="2" fill="white"/>
</mask>
<g mask="url(#mask0_478_1564)">
<path fill-rule="evenodd" clip-rule="evenodd" d="M24 0.928574H0V2.07143H24V0.928574ZM24 3.21429H0V4.35715H24V3.21429ZM0 5.5H24V6.64286H0V5.5ZM24 7.78572H0V8.92857H24V7.78572ZM0 10.0714H24V11.2143H0V10.0714ZM24 12.3571H0V13.5H24V12.3571ZM0 14.6429H24V15.7857H0V14.6429ZM24 16.9286H0V18.0714H24V16.9286Z" fill="#D02F44"/>
<rect y="0.928574" width="10.2857" height="8" fill="#46467F"/>
<g filter="url(#filter0_d_478_1564)">
<path fill-rule="evenodd" clip-rule="evenodd" d="M2.28568 2.64286C2.28568 2.95845 2.02984 3.21429 1.71425 3.21429C1.39866 3.21429 1.14282 2.95845 1.14282 2.64286C1.14282 2.32727 1.39866 2.07143 1.71425 2.07143C2.02984 2.07143 2.28568 2.32727 2.28568 2.64286ZM4.57139 2.64286C4.57139 2.95845 4.31556 3.21429 3.99997 3.21429C3.68437 3.21429 3.42854 2.95845 3.42854 2.64286C3.42854 2.32727 3.68437 2.07143 3.99997 2.07143C4.31556 2.07143 4.57139 2.32727 4.57139 2.64286ZM6.28568 3.21429C6.60127 3.21429 6.85711 2.95845 6.85711 2.64286C6.85711 2.32727 6.60127 2.07143 6.28568 2.07143C5.97009 2.07143 5.71425 2.32727 5.71425 2.64286C5.71425 2.95845 5.97009 3.21429 6.28568 3.21429ZM9.14282 2.64286C9.14282 2.95845 8.88699 3.21429 8.57139 3.21429C8.2558 3.21429 7.99996 2.95845 7.99996 2.64286C7.99996 2.32727 8.2558 2.07143 8.57139 2.07143C8.88699 2.07143 9.14282 2.32727 9.14282 2.64286ZM2.85711 4.35715C3.1727 4.35715 3.42854 4.10131 3.42854 3.78572C3.42854 3.47013 3.1727 3.21429 2.85711 3.21429C2.54152 3.21429 2.28568 3.47013 2.28568 3.78572C2.28568 4.10131 2.54152 4.35715 2.85711 4.35715ZM5.71425 3.78572C5.71425 4.10131 5.45841 4.35715 5.14282 4.35715C4.82723 4.35715 4.57139 4.10131 4.57139 3.78572C4.57139 3.47013 4.82723 3.21429 5.14282 3.21429C5.45841 3.21429 5.71425 3.47013 5.71425 3.78572ZM7.42854 4.35715C7.74413 4.35715 7.99996 4.10131 7.99996 3.78572C7.99996 3.47013 7.74413 3.21429 7.42854 3.21429C7.11295 3.21429 6.85711 3.47013 6.85711 3.78572C6.85711 4.10131 7.11295 4.35715 7.42854 4.35715ZM9.14282 4.92858C9.14282 5.24417 8.88699 5.50001 8.57139 5.50001C8.2558 5.50001 7.99996 5.24417 7.99996 4.92858C7.99996 4.61299 8.2558 4.35715 8.57139 4.35715C8.88699 4.35715 9.14282 4.61299 9.14282 4.92858ZM6.28568 5.50001C6.60127 5.50001 6.85711 5.24417 6.85711 4.92858C6.85711 4.61299 6.60127 4.35715 6.28568 4.35715C5.97009 4.35715 5.71425 4.61299 5.71425 4.92858C5.71425 5.24417 5.97009 5.50001 6.28568 5.50001ZM4.57139 4.92858C4.57139 5.24417 4.31556 5.50001 3.99997 5.50001C3.68437 5.50001 3.42854 5.24417 3.42854 4.92858C3.42854 4.61299 3.68437 4.35715 3.99997 4.35715C4.31556 4.35715 4.57139 4.61299 4.57139 4.92858ZM1.71425 5.50001C2.02984 5.50001 2.28568 5.24417 2.28568 4.92858C2.28568 4.61299 2.02984 4.35715 1.71425 4.35715C1.39866 4.35715 1.14282 4.61299 1.14282 4.92858C1.14282 5.24417 1.39866 5.50001 1.71425 5.50001ZM3.42854 6.07143C3.42854 6.38703 3.1727 6.64286 2.85711 6.64286C2.54152 6.64286 2.28568 6.38703 2.28568 6.07143C2.28568 5.75584 2.54152 5.50001 2.85711 5.50001C3.1727 5.50001 3.42854 5.75584 3.42854 6.07143ZM5.14282 6.64286C5.45841 6.64286 5.71425 6.38703 5.71425 6.07143C5.71425 5.75584 5.45841 5.50001 5.14282 5.50001C4.82723 5.50001 4.57139 5.75584 4.57139 6.07143C4.57139 6.38703 4.82723 6.64286 5.14282 6.64286ZM7.99996 6.07143C7.99996 6.38703 7.74413 6.64286 7.42854 6.64286C7.11295 6.64286 6.85711 6.38703 6.85711 6.07143C6.85711 5.75584 7.11295 5.50001 7.42854 5.50001C7.74413 5.50001 7.99996 5.75584 7.99996 6.07143ZM8.57139 7.78572C8.88699 7.78572 9.14282 7.52988 9.14282 7.21429C9.14282 6.8987 8.88699 6.64286 8.57139 6.64286C8.2558 6.64286 7.99996 6.8987 7.99996 7.21429C7.99996 7.52988 8.2558 7.78572 8.57139 7.78572ZM6.85711 7.21429C6.85711 7.52988 6.60127 7.78572 6.28568 7.78572C5.97009 7.78572 5.71425 7.52988 5.71425 7.21429C5.71425 6.8987 5.97009 6.64286 6.28568 6.64286C6.60127 6.64286 6.85711 6.8987 6.85711 7.21429ZM3.99997 7.78572C4.31556 7.78572 4.57139 7.52988 4.57139 7.21429C4.57139 6.8987 4.31556 6.64286 3.99997 6.64286C3.68437 6.64286 3.42854 6.8987 3.42854 7.21429C3.42854 7.52988 3.68437 7.78572 3.99997 7.78572ZM2.28568 7.21429C2.28568 7.52988 2.02984 7.78572 1.71425 7.78572C1.39866 7.78572 1.14282 7.52988 1.14282 7.21429C1.14282 6.8987 1.39866 6.64286 1.71425 6.64286C2.02984 6.64286 2.28568 6.8987 2.28568 7.21429Z" fill="url(#paint0_linear_478_1564)"/>
</g>
</g>
<rect x="0.5" y="1.42857" width="23" height="16.1429" stroke="#F3F4F6"/>
<defs>
<filter id="filter0_d_478_1564" x="1.14282" y="2.07143" width="8" height="6.71429" filterUnits="userSpaceOnUse" color-interpolation-filters="sRGB">
<feFlood flood-opacity="0" result="BackgroundImageFix"/>
<feColorMatrix in="SourceAlpha" type="matrix" values="0 0 0 0 0 0 0 0 0 0 0 0 0 0 0 0 0 0 127 0" result="hardAlpha"/>
<feOffset dy="1"/>
<feColorMatrix type="matrix" values="0 0 0 0 0 0 0 0 0 0 0 0 0 0 0 0 0 0 0.06 0"/>
<feBlend mode="normal" in2="BackgroundImageFix" result="effect1_dropShadow_478_1564"/>
<feBlend mode="normal" in="SourceGraphic" in2="effect1_dropShadow_478_1564" result="shape"/>
</filter>
<linearGradient id="paint0_linear_478_1564" x1="1.14282" y1="2.07143" x2="1.14282" y2="7.78572" gradientUnits="userSpaceOnUse">
<stop stop-color="white"/>
<stop offset="1" stop-color="#F0F0F0"/>
</linearGradient>
</defs>
</svg>
