<svg width="142" height="46" viewBox="0 0 142 46" fill="none" xmlns="http://www.w3.org/2000/svg">
<rect y="6.54095" width="32" height="32" rx="8" fill="white"/>
<rect width="16" height="16" transform="translate(8 14.5409)" fill="white"/>
<path d="M21.3333 18.2076C21.8856 18.2076 22.3333 17.7599 22.3333 17.2076C22.3333 16.6553 21.8856 16.2076 21.3333 16.2076V18.2076ZM11.6667 18.2076H21.3333V16.2076H11.6667V18.2076ZM11.6667 21.5409H17V19.5409H11.6667V21.5409ZM11 18.8743C11 18.5061 11.2985 18.2076 11.6667 18.2076V16.2076C10.1939 16.2076 9 17.4015 9 18.8743L11 18.8743ZM9 18.8743C9 20.347 10.1939 21.5409 11.6667 21.5409V19.5409C11.2985 19.5409 11 19.2425 11 18.8743L9 18.8743Z" fill="#14B8A6"/>
<path d="M11 22.5409V18.8743H9V22.5409H11Z" fill="#14B8A6"/>
<path d="M22.5 26.5409V26.0409H22H20C19.1716 26.0409 18.5 25.3694 18.5 24.5409C18.5 23.7125 19.1716 23.0409 20 23.0409H22H22.5V22.5409L22.5 22.508C22.5 22.0648 22.5 21.6829 22.4589 21.3771C22.4149 21.0493 22.3155 20.7351 22.0607 20.4803C21.8058 20.2255 21.4917 20.1261 21.1639 20.082C20.8581 20.0409 20.4762 20.0409 20.0329 20.0409L20 20.0409H10H9.5V20.5409L9.5 26.5409L9.5 26.5739C9.49997 27.0171 9.49995 27.399 9.54107 27.7048C9.58514 28.0326 9.68451 28.3468 9.93934 28.6016L10.2929 28.2481L9.93934 28.6016C10.1942 28.8564 10.5083 28.9558 10.8361 28.9999C11.1419 29.041 11.5238 29.041 11.9671 29.0409L12 29.0409H20C20.011 29.0409 20.022 29.0409 20.0329 29.0409C20.4762 29.041 20.8581 29.041 21.1639 28.9999C21.4917 28.9558 21.8058 28.8564 22.0607 28.6016C22.3155 28.3468 22.4149 28.0326 22.4589 27.7048C22.5 27.399 22.5 27.0171 22.5 26.5739C22.5 26.5629 22.5 26.552 22.5 26.5409Z" fill="#14B8A6" stroke="#14B8A6"/>
<path d="M43.878 15.0409L40.42 5.17095H41.624L44.41 13.3609L47.266 5.17095H48.19L51.018 13.4309L53.86 5.17095H55.008L51.55 15.0409H50.528L47.714 6.92095L44.872 15.0409H43.878ZM57.8212 15.1669C57.3546 15.1669 56.9346 15.0783 56.5612 14.9009C56.1972 14.7143 55.9079 14.4623 55.6932 14.1449C55.4786 13.8276 55.3712 13.4729 55.3712 13.0809C55.3712 12.5863 55.4972 12.1943 55.7492 11.9049C56.0106 11.6156 56.4352 11.4103 57.0232 11.2889C57.6206 11.1583 58.4326 11.0929 59.4592 11.0929H59.9072V10.6589C59.9072 10.0803 59.7859 9.66495 59.5432 9.41295C59.3099 9.15161 58.9319 9.02095 58.4092 9.02095C57.9986 9.02095 57.6019 9.08161 57.2192 9.20295C56.8366 9.31495 56.4446 9.50161 56.0432 9.76295L55.6512 8.93695C56.0059 8.68495 56.4352 8.48428 56.9392 8.33495C57.4526 8.18561 57.9426 8.11095 58.4092 8.11095C59.2866 8.11095 59.9352 8.32561 60.3552 8.75495C60.7846 9.18428 60.9992 9.85161 60.9992 10.7569V15.0409H59.9352V13.8649C59.7579 14.2663 59.4826 14.5836 59.1092 14.8169C58.7452 15.0503 58.3159 15.1669 57.8212 15.1669ZM58.0032 14.3129C58.5632 14.3129 59.0206 14.1216 59.3752 13.7389C59.7299 13.3469 59.9072 12.8523 59.9072 12.2549V11.8349H59.4732C58.7172 11.8349 58.1199 11.8723 57.6812 11.9469C57.2519 12.0123 56.9486 12.1336 56.7712 12.3109C56.6032 12.4789 56.5192 12.7123 56.5192 13.0109C56.5192 13.3936 56.6499 13.7063 56.9112 13.9489C57.1819 14.1916 57.5459 14.3129 58.0032 14.3129ZM65.1891 15.1669C64.4984 15.1669 63.9757 14.9663 63.6211 14.5649C63.2757 14.1543 63.1031 13.5616 63.1031 12.7869V5.17095H64.2371V12.7029C64.2371 13.7016 64.6337 14.2009 65.4271 14.2009C65.6604 14.2009 65.8704 14.1729 66.0571 14.1169L66.0291 15.0689C65.7397 15.1343 65.4597 15.1669 65.1891 15.1669ZM69.3316 15.1669C68.641 15.1669 68.1183 14.9663 67.7636 14.5649C67.4183 14.1543 67.2456 13.5616 67.2456 12.7869V5.17095H68.3796V12.7029C68.3796 13.7016 68.7763 14.2009 69.5696 14.2009C69.803 14.2009 70.013 14.1729 70.1996 14.1169L70.1716 15.0689C69.8823 15.1343 69.6023 15.1669 69.3316 15.1669ZM74.3859 15.1669C73.3125 15.1669 72.4632 14.8543 71.8379 14.2289C71.2125 13.5943 70.8999 12.7356 70.8999 11.6529C70.8999 10.9529 71.0399 10.3369 71.3199 9.80495C71.5999 9.26361 71.9825 8.84828 72.4679 8.55895C72.9625 8.26028 73.5319 8.11095 74.1759 8.11095C75.0999 8.11095 75.8232 8.40961 76.3459 9.00695C76.8685 9.59495 77.1299 10.4069 77.1299 11.4429V11.8769H72.0059C72.0432 12.6516 72.2672 13.2443 72.6779 13.6549C73.0885 14.0563 73.6579 14.2569 74.3859 14.2569C74.7965 14.2569 75.1885 14.1963 75.5619 14.0749C75.9352 13.9443 76.2899 13.7343 76.6259 13.4449L77.0179 14.2429C76.7099 14.5323 76.3179 14.7609 75.8419 14.9289C75.3659 15.0876 74.8805 15.1669 74.3859 15.1669ZM74.2039 8.95095C73.5599 8.95095 73.0512 9.15161 72.6779 9.55295C72.3045 9.95428 72.0852 10.4816 72.0199 11.1349H76.1499C76.1219 10.4443 75.9399 9.90761 75.6039 9.52495C75.2772 9.14228 74.8105 8.95095 74.2039 8.95095ZM81.501 15.1669C80.6984 15.1669 80.0964 14.9569 79.695 14.5369C79.2937 14.1076 79.093 13.4916 79.093 12.6889V9.11895H77.763V8.23695H79.093V6.15095H80.227V8.23695H82.383V9.11895H80.227V12.5769C80.227 13.1089 80.339 13.5149 80.563 13.7949C80.787 14.0656 81.151 14.2009 81.655 14.2009C81.8044 14.2009 81.9537 14.1823 82.103 14.1449C82.2524 14.1076 82.3877 14.0703 82.509 14.0329L82.705 14.9009C82.5837 14.9663 82.4064 15.0269 82.173 15.0829C81.9397 15.1389 81.7157 15.1669 81.501 15.1669ZM87.4153 15.0409V5.17095H91.3633C92.3806 5.17095 93.1646 5.39961 93.7153 5.85695C94.2753 6.30495 94.5553 6.93495 94.5553 7.74695C94.5553 8.28828 94.4153 8.75028 94.1353 9.13295C93.8553 9.51561 93.4679 9.79561 92.9733 9.97295C93.5426 10.1223 93.9859 10.3976 94.3033 10.7989C94.6299 11.2003 94.7933 11.7089 94.7933 12.3249C94.7933 13.2023 94.5086 13.8743 93.9393 14.3409C93.3699 14.8076 92.5673 15.0409 91.5313 15.0409H87.4153ZM88.5353 9.58095H91.1953C92.6793 9.58095 93.4213 9.00228 93.4213 7.84495C93.4213 6.67828 92.6793 6.09495 91.1953 6.09495H88.5353V9.58095ZM88.5353 14.1169H91.4193C92.9126 14.1169 93.6593 13.5149 93.6593 12.3109C93.6593 11.1069 92.9126 10.5049 91.4193 10.5049H88.5353V14.1169ZM98.8642 15.1669C98.3975 15.1669 97.9775 15.0783 97.6042 14.9009C97.2402 14.7143 96.9509 14.4623 96.7362 14.1449C96.5215 13.8276 96.4142 13.4729 96.4142 13.0809C96.4142 12.5863 96.5402 12.1943 96.7922 11.9049C97.0535 11.6156 97.4782 11.4103 98.0662 11.2889C98.6635 11.1583 99.4755 11.0929 100.502 11.0929H100.95V10.6589C100.95 10.0803 100.829 9.66495 100.586 9.41295C100.353 9.15161 99.9749 9.02095 99.4522 9.02095C99.0415 9.02095 98.6449 9.08161 98.2622 9.20295C97.8795 9.31495 97.4875 9.50161 97.0862 9.76295L96.6942 8.93695C97.0489 8.68495 97.4782 8.48428 97.9822 8.33495C98.4955 8.18561 98.9855 8.11095 99.4522 8.11095C100.33 8.11095 100.978 8.32561 101.398 8.75495C101.828 9.18428 102.042 9.85161 102.042 10.7569V15.0409H100.978V13.8649C100.801 14.2663 100.526 14.5836 100.152 14.8169C99.7882 15.0503 99.3589 15.1669 98.8642 15.1669ZM99.0462 14.3129C99.6062 14.3129 100.064 14.1216 100.418 13.7389C100.773 13.3469 100.95 12.8523 100.95 12.2549V11.8349H100.516C99.7602 11.8349 99.1629 11.8723 98.7242 11.9469C98.2949 12.0123 97.9915 12.1336 97.8142 12.3109C97.6462 12.4789 97.5622 12.7123 97.5622 13.0109C97.5622 13.3936 97.6929 13.7063 97.9542 13.9489C98.2249 14.1916 98.5889 14.3129 99.0462 14.3129ZM106.232 15.1669C105.541 15.1669 105.019 14.9663 104.664 14.5649C104.319 14.1543 104.146 13.5616 104.146 12.7869V5.17095H105.28V12.7029C105.28 13.7016 105.677 14.2009 106.47 14.2009C106.703 14.2009 106.913 14.1729 107.1 14.1169L107.072 15.0689C106.783 15.1343 106.503 15.1669 106.232 15.1669ZM110.431 15.1669C109.964 15.1669 109.544 15.0783 109.171 14.9009C108.807 14.7143 108.517 14.4623 108.303 14.1449C108.088 13.8276 107.981 13.4729 107.981 13.0809C107.981 12.5863 108.107 12.1943 108.359 11.9049C108.62 11.6156 109.045 11.4103 109.633 11.2889C110.23 11.1583 111.042 11.0929 112.069 11.0929H112.517V10.6589C112.517 10.0803 112.395 9.66495 112.153 9.41295C111.919 9.15161 111.541 9.02095 111.019 9.02095C110.608 9.02095 110.211 9.08161 109.829 9.20295C109.446 9.31495 109.054 9.50161 108.653 9.76295L108.261 8.93695C108.615 8.68495 109.045 8.48428 109.549 8.33495C110.062 8.18561 110.552 8.11095 111.019 8.11095C111.896 8.11095 112.545 8.32561 112.965 8.75495C113.394 9.18428 113.609 9.85161 113.609 10.7569V15.0409H112.545V13.8649C112.367 14.2663 112.092 14.5836 111.719 14.8169C111.355 15.0503 110.925 15.1669 110.431 15.1669ZM110.613 14.3129C111.173 14.3129 111.63 14.1216 111.985 13.7389C112.339 13.3469 112.517 12.8523 112.517 12.2549V11.8349H112.083C111.327 11.8349 110.729 11.8723 110.291 11.9469C109.861 12.0123 109.558 12.1336 109.381 12.3109C109.213 12.4789 109.129 12.7123 109.129 13.0109C109.129 13.3936 109.259 13.7063 109.521 13.9489C109.791 14.1916 110.155 14.3129 110.613 14.3129ZM115.712 15.0409V8.23695H116.818V9.39895C117.042 8.96961 117.36 8.64761 117.77 8.43295C118.181 8.21828 118.643 8.11095 119.156 8.11095C120.771 8.11095 121.578 9.00695 121.578 10.7989V15.0409H120.444V10.8689C120.444 10.2343 120.318 9.77228 120.066 9.48295C119.824 9.18428 119.432 9.03495 118.89 9.03495C118.265 9.03495 117.766 9.23095 117.392 9.62295C117.028 10.0056 116.846 10.5189 116.846 11.1629V15.0409H115.712ZM126.553 15.1669C125.872 15.1669 125.284 15.0223 124.789 14.7329C124.295 14.4343 123.912 14.0189 123.641 13.4869C123.38 12.9456 123.249 12.3156 123.249 11.5969C123.249 10.5143 123.543 9.66495 124.131 9.04895C124.719 8.42361 125.527 8.11095 126.553 8.11095C126.973 8.11095 127.389 8.18561 127.799 8.33495C128.21 8.48428 128.551 8.69428 128.821 8.96495L128.429 9.79095C128.159 9.52961 127.86 9.33828 127.533 9.21695C127.216 9.09561 126.913 9.03495 126.623 9.03495C125.914 9.03495 125.368 9.25895 124.985 9.70695C124.603 10.1456 124.411 10.7803 124.411 11.6109C124.411 12.4229 124.603 13.0669 124.985 13.5429C125.368 14.0096 125.914 14.2429 126.623 14.2429C126.913 14.2429 127.216 14.1823 127.533 14.0609C127.86 13.9396 128.159 13.7436 128.429 13.4729L128.821 14.2989C128.551 14.5696 128.205 14.7843 127.785 14.9429C127.375 15.0923 126.964 15.1669 126.553 15.1669ZM133.079 15.1669C132.006 15.1669 131.157 14.8543 130.531 14.2289C129.906 13.5943 129.593 12.7356 129.593 11.6529C129.593 10.9529 129.733 10.3369 130.013 9.80495C130.293 9.26361 130.676 8.84828 131.161 8.55895C131.656 8.26028 132.225 8.11095 132.869 8.11095C133.793 8.11095 134.517 8.40961 135.039 9.00695C135.562 9.59495 135.823 10.4069 135.823 11.4429V11.8769H130.699C130.737 12.6516 130.961 13.2443 131.371 13.6549C131.782 14.0563 132.351 14.2569 133.079 14.2569C133.49 14.2569 133.882 14.1963 134.255 14.0749C134.629 13.9443 134.983 13.7343 135.319 13.4449L135.711 14.2429C135.403 14.5323 135.011 14.7609 134.535 14.9289C134.059 15.0876 133.574 15.1669 133.079 15.1669ZM132.897 8.95095C132.253 8.95095 131.745 9.15161 131.371 9.55295C130.998 9.95428 130.779 10.4816 130.713 11.1349H134.843C134.815 10.4443 134.633 9.90761 134.297 9.52495C133.971 9.14228 133.504 8.95095 132.897 8.95095Z" fill="white"/>
<path d="M44.16 39.8809V38.1209C43.456 38.0676 42.7893 37.9396 42.16 37.7369C41.5413 37.5236 41.0027 37.2303 40.544 36.8569L41.168 35.2409C41.6693 35.6143 42.2187 35.9023 42.816 36.1049C43.4133 36.3076 44.0693 36.4089 44.784 36.4089C45.5627 36.4089 46.1333 36.2703 46.496 35.9929C46.8587 35.7156 47.04 35.3689 47.04 34.9529C47.04 34.5796 46.9173 34.2809 46.672 34.0569C46.4267 33.8329 45.9893 33.6516 45.36 33.5129L43.664 33.1449C42.704 32.9316 41.9787 32.5796 41.488 32.0889C41.008 31.5876 40.768 30.9263 40.768 30.1049C40.768 29.2089 41.072 28.4569 41.68 27.8489C42.2987 27.2303 43.1253 26.8569 44.16 26.7289V24.9209H45.76V26.7129C46.3147 26.7663 46.8533 26.8996 47.376 27.1129C47.8987 27.3263 48.3413 27.6143 48.704 27.9769L48.096 29.5129C47.2853 28.7663 46.2507 28.3929 44.992 28.3929C44.3307 28.3929 43.7973 28.5476 43.392 28.8569C42.9973 29.1556 42.8 29.5503 42.8 30.0409C42.8 30.4036 42.9227 30.6969 43.168 30.9209C43.4133 31.1449 43.808 31.3156 44.352 31.4329L46.048 31.8009C47.072 32.0249 47.8293 32.3823 48.32 32.8729C48.8213 33.3529 49.072 33.9929 49.072 34.7929C49.072 35.6889 48.7627 36.4249 48.144 37.0009C47.536 37.5663 46.7413 37.9236 45.76 38.0729V39.8809H44.16ZM51.3378 38.0409V36.3449H53.8818V29.0969L51.9138 30.2809L51.1138 28.7769L54.4738 26.7609H55.9298V36.3449H58.3138V38.0409H51.3378ZM64.0835 38.2009C63.3475 38.2009 62.6328 38.0889 61.9395 37.8649C61.2462 37.6303 60.6808 37.3156 60.2435 36.9209L60.9155 35.3529C61.8862 36.0996 62.9315 36.4729 64.0515 36.4729C64.7235 36.4729 65.2462 36.3023 65.6195 35.9609C66.0035 35.6089 66.1955 35.1396 66.1955 34.5529C66.1955 33.9556 66.0142 33.4756 65.6515 33.1129C65.2888 32.7396 64.7928 32.5529 64.1635 32.5529C63.2675 32.5529 62.5262 32.9103 61.9395 33.6249H60.5635V26.7609H67.4915V28.4569H62.5635V31.5129C63.1288 31.0863 63.8222 30.8729 64.6435 30.8729C65.3582 30.8729 65.9768 31.0276 66.4995 31.3369C67.0328 31.6356 67.4435 32.0569 67.7315 32.6009C68.0302 33.1343 68.1795 33.7583 68.1795 34.4729C68.1795 35.2089 68.0142 35.8596 67.6835 36.4249C67.3528 36.9796 66.8782 37.4169 66.2595 37.7369C65.6515 38.0463 64.9262 38.2009 64.0835 38.2009ZM70.6213 40.1689L69.8053 39.5289C70.0719 39.2623 70.2693 39.0063 70.3973 38.7609C70.5359 38.5263 70.6319 38.2863 70.6853 38.0409H69.6453V35.8169H71.8853V37.2889C71.8853 37.8329 71.7893 38.3289 71.5973 38.7769C71.4159 39.2356 71.0906 39.6996 70.6213 40.1689ZM77.55 38.2009C76.2167 38.2009 75.198 37.6996 74.494 36.6969C73.79 35.6836 73.438 34.2436 73.438 32.3769C73.438 30.4889 73.79 29.0543 74.494 28.0729C75.198 27.0916 76.2167 26.6009 77.55 26.6009C78.894 26.6009 79.9127 27.0916 80.606 28.0729C81.31 29.0543 81.662 30.4836 81.662 32.3609C81.662 34.2383 81.31 35.6836 80.606 36.6969C79.902 37.6996 78.8833 38.2009 77.55 38.2009ZM77.55 36.5209C78.2753 36.5209 78.8087 36.1903 79.15 35.5289C79.502 34.8569 79.678 33.8009 79.678 32.3609C79.678 30.9316 79.502 29.8969 79.15 29.2569C78.8087 28.6063 78.2753 28.2809 77.55 28.2809C76.8353 28.2809 76.302 28.6063 75.95 29.2569C75.598 29.8969 75.422 30.9316 75.422 32.3609C75.422 33.8009 75.598 34.8569 75.95 35.5289C76.302 36.1903 76.8353 36.5209 77.55 36.5209ZM87.1438 38.2009C85.8104 38.2009 84.7918 37.6996 84.0878 36.6969C83.3838 35.6836 83.0318 34.2436 83.0318 32.3769C83.0318 30.4889 83.3838 29.0543 84.0878 28.0729C84.7918 27.0916 85.8104 26.6009 87.1438 26.6009C88.4878 26.6009 89.5064 27.0916 90.1998 28.0729C90.9038 29.0543 91.2558 30.4836 91.2558 32.3609C91.2558 34.2383 90.9038 35.6836 90.1998 36.6969C89.4958 37.6996 88.4771 38.2009 87.1438 38.2009ZM87.1438 36.5209C87.8691 36.5209 88.4024 36.1903 88.7438 35.5289C89.0958 34.8569 89.2718 33.8009 89.2718 32.3609C89.2718 30.9316 89.0958 29.8969 88.7438 29.2569C88.4024 28.6063 87.8691 28.2809 87.1438 28.2809C86.4291 28.2809 85.8958 28.6063 85.5438 29.2569C85.1918 29.8969 85.0158 30.9316 85.0158 32.3609C85.0158 33.8009 85.1918 34.8569 85.5438 35.5289C85.8958 36.1903 86.4291 36.5209 87.1438 36.5209ZM93.6815 38.0409V36.3449H96.2255V29.0969L94.2575 30.2809L93.4575 28.7769L96.8175 26.7609H98.2735V36.3449H100.658V38.0409H93.6815ZM102.395 38.0409V35.8169H104.635V38.0409H102.395ZM110.3 38.2009C108.967 38.2009 107.948 37.6996 107.244 36.6969C106.54 35.6836 106.188 34.2436 106.188 32.3769C106.188 30.4889 106.54 29.0543 107.244 28.0729C107.948 27.0916 108.967 26.6009 110.3 26.6009C111.644 26.6009 112.663 27.0916 113.356 28.0729C114.06 29.0543 114.412 30.4836 114.412 32.3609C114.412 34.2383 114.06 35.6836 113.356 36.6969C112.652 37.6996 111.633 38.2009 110.3 38.2009ZM110.3 36.5209C111.025 36.5209 111.559 36.1903 111.9 35.5289C112.252 34.8569 112.428 33.8009 112.428 32.3609C112.428 30.9316 112.252 29.8969 111.9 29.2569C111.559 28.6063 111.025 28.2809 110.3 28.2809C109.585 28.2809 109.052 28.6063 108.7 29.2569C108.348 29.8969 108.172 30.9316 108.172 32.3609C108.172 33.8009 108.348 34.8569 108.7 35.5289C109.052 36.1903 109.585 36.5209 110.3 36.5209ZM119.894 38.2009C118.56 38.2009 117.542 37.6996 116.838 36.6969C116.134 35.6836 115.782 34.2436 115.782 32.3769C115.782 30.4889 116.134 29.0543 116.838 28.0729C117.542 27.0916 118.56 26.6009 119.894 26.6009C121.238 26.6009 122.256 27.0916 122.95 28.0729C123.654 29.0543 124.006 30.4836 124.006 32.3609C124.006 34.2383 123.654 35.6836 122.95 36.6969C122.246 37.6996 121.227 38.2009 119.894 38.2009ZM119.894 36.5209C120.619 36.5209 121.152 36.1903 121.494 35.5289C121.846 34.8569 122.022 33.8009 122.022 32.3609C122.022 30.9316 121.846 29.8969 121.494 29.2569C121.152 28.6063 120.619 28.2809 119.894 28.2809C119.179 28.2809 118.646 28.6063 118.294 29.2569C117.942 29.8969 117.766 30.9316 117.766 32.3609C117.766 33.8009 117.942 34.8569 118.294 35.5289C118.646 36.1903 119.179 36.5209 119.894 36.5209Z" fill="white"/>
</svg>
